<svg width="20" height="20" viewBox="0 0 20 20" fill="none" xmlns="http://www.w3.org/2000/svg">
<path d="M13.0083 10C13.0083 11.6583 11.6583 13.0083 10 13.0083C8.34167 13.0083 6.99167 11.6583 6.99167 10C6.99167 8.34167 8.34167 6.99167 10 6.99167C11.6583 6.99167 13.0083 8.34167 13.0083 10ZM10 0C4.48583 0 0 4.48583 0 10C0 15.5142 4.48583 20 10 20C12.02 20 13.9675 19.3983 15.6333 18.2608L15.6617 18.2408L14.3142 16.675L14.2917 16.6892C13.0122 17.5135 11.5221 17.9513 10 17.95C5.61667 17.95 2.05 14.3833 2.05 10C2.05 5.61667 5.61667 2.05 10 2.05C14.3833 2.05 17.95 5.61667 17.95 10C17.9488 10.5745 17.886 11.1472 17.7625 11.7083C17.5117 12.7408 16.7883 13.0567 16.2458 13.015C15.7008 12.9708 15.0625 12.5817 15.0575 11.6308V10C15.0562 8.659 14.5229 7.37328 13.5748 6.42497C12.6266 5.47666 11.341 4.94321 10 4.94167C8.65885 4.94299 7.37301 5.47635 6.42468 6.42468C5.47635 7.37301 4.94299 8.65885 4.94167 10C4.94299 11.3411 5.47635 12.627 6.42468 13.5753C7.37301 14.5237 8.65885 15.057 10 15.0583C10.6665 15.06 11.3267 14.9287 11.942 14.6723C12.5572 14.4159 13.1152 14.0395 13.5833 13.565C13.8792 14.0296 14.2884 14.4114 14.7723 14.6746C15.2563 14.9377 15.7992 15.0735 16.35 15.0692C17.0783 15.0692 17.8 14.8258 18.3808 14.385C18.98 13.9292 19.4275 13.2717 19.675 12.4808C19.7142 12.3525 19.7875 12.0608 19.7875 12.0583L19.7892 12.0475C19.935 11.4142 20 10.7808 20 10C20 4.48583 15.5142 0 10 0Z" fill="white"/>
</svg>
